<mxfile host="app.diagrams.net" modified="2022-09-25T13:01:46.302Z" agent="5.0 (Windows NT 10.0; Win64; x64) AppleWebKit/537.36 (KHTML, like Gecko) Chrome/105.0.0.0 Safari/537.36" etag="w2XqPBSL-TMMWL4fsdYw" version="20.3.6" type="github">
  <diagram id="BBNO54ho6gcTSYXGq_IY" name="第1頁">
    <mxGraphModel dx="600" dy="372" grid="1" gridSize="10" guides="1" tooltips="1" connect="1" arrows="1" fold="1" page="1" pageScale="1" pageWidth="827" pageHeight="1169" math="0" shadow="0">
      <root>
        <mxCell id="0" />
        <mxCell id="1" parent="0" />
        <mxCell id="0GZyKoDngFQgcf6ex4dP-7" value="1-many" style="edgeStyle=orthogonalEdgeStyle;rounded=0;orthogonalLoop=1;jettySize=auto;html=1;fontSize=16;startArrow=classic;startFill=1;" edge="1" parent="1" source="0GZyKoDngFQgcf6ex4dP-1" target="0GZyKoDngFQgcf6ex4dP-2">
          <mxGeometry relative="1" as="geometry" />
        </mxCell>
        <mxCell id="0GZyKoDngFQgcf6ex4dP-1" value="&lt;font style=&quot;font-size: 16px;&quot;&gt;District&lt;/font&gt;" style="rounded=0;whiteSpace=wrap;html=1;" vertex="1" parent="1">
          <mxGeometry x="250" y="170" width="120" height="60" as="geometry" />
        </mxCell>
        <mxCell id="0GZyKoDngFQgcf6ex4dP-8" value="1-many" style="edgeStyle=orthogonalEdgeStyle;rounded=0;orthogonalLoop=1;jettySize=auto;html=1;fontSize=16;startArrow=classic;startFill=1;" edge="1" parent="1" source="0GZyKoDngFQgcf6ex4dP-2" target="0GZyKoDngFQgcf6ex4dP-3">
          <mxGeometry relative="1" as="geometry" />
        </mxCell>
        <mxCell id="0GZyKoDngFQgcf6ex4dP-2" value="&lt;font style=&quot;font-size: 16px;&quot;&gt;Division&lt;/font&gt;" style="rounded=0;whiteSpace=wrap;html=1;" vertex="1" parent="1">
          <mxGeometry x="250" y="280" width="120" height="60" as="geometry" />
        </mxCell>
        <mxCell id="0GZyKoDngFQgcf6ex4dP-9" value="1-many" style="edgeStyle=orthogonalEdgeStyle;rounded=0;orthogonalLoop=1;jettySize=auto;html=1;fontSize=16;startArrow=classic;startFill=1;" edge="1" parent="1" source="0GZyKoDngFQgcf6ex4dP-3" target="0GZyKoDngFQgcf6ex4dP-4">
          <mxGeometry relative="1" as="geometry" />
        </mxCell>
        <mxCell id="0GZyKoDngFQgcf6ex4dP-3" value="&lt;font style=&quot;font-size: 16px;&quot;&gt;Area&lt;/font&gt;" style="rounded=0;whiteSpace=wrap;html=1;" vertex="1" parent="1">
          <mxGeometry x="250" y="390" width="120" height="60" as="geometry" />
        </mxCell>
        <mxCell id="0GZyKoDngFQgcf6ex4dP-10" value="many-many?" style="edgeStyle=orthogonalEdgeStyle;rounded=0;orthogonalLoop=1;jettySize=auto;html=1;fontSize=16;startArrow=classic;startFill=1;" edge="1" parent="1" source="0GZyKoDngFQgcf6ex4dP-4" target="0GZyKoDngFQgcf6ex4dP-5">
          <mxGeometry relative="1" as="geometry" />
        </mxCell>
        <mxCell id="0GZyKoDngFQgcf6ex4dP-4" value="&lt;font style=&quot;font-size: 16px;&quot;&gt;Club&lt;/font&gt;" style="rounded=0;whiteSpace=wrap;html=1;" vertex="1" parent="1">
          <mxGeometry x="250" y="500" width="120" height="60" as="geometry" />
        </mxCell>
        <mxCell id="0GZyKoDngFQgcf6ex4dP-5" value="&lt;font style=&quot;font-size: 16px;&quot;&gt;Member&lt;/font&gt;" style="rounded=0;whiteSpace=wrap;html=1;" vertex="1" parent="1">
          <mxGeometry x="490" y="500" width="120" height="60" as="geometry" />
        </mxCell>
        <mxCell id="0GZyKoDngFQgcf6ex4dP-12" value="many-many" style="edgeStyle=orthogonalEdgeStyle;rounded=0;orthogonalLoop=1;jettySize=auto;html=1;fontSize=16;startArrow=classic;startFill=1;" edge="1" parent="1" source="0GZyKoDngFQgcf6ex4dP-6" target="0GZyKoDngFQgcf6ex4dP-5">
          <mxGeometry relative="1" as="geometry" />
        </mxCell>
        <mxCell id="0GZyKoDngFQgcf6ex4dP-19" style="edgeStyle=orthogonalEdgeStyle;rounded=0;orthogonalLoop=1;jettySize=auto;html=1;entryX=1;entryY=0.5;entryDx=0;entryDy=0;fontSize=16;startArrow=classic;startFill=1;" edge="1" parent="1" source="0GZyKoDngFQgcf6ex4dP-6" target="0GZyKoDngFQgcf6ex4dP-3">
          <mxGeometry relative="1" as="geometry" />
        </mxCell>
        <mxCell id="0GZyKoDngFQgcf6ex4dP-6" value="&lt;font style=&quot;font-size: 16px;&quot;&gt;Office&lt;/font&gt;" style="rounded=0;whiteSpace=wrap;html=1;" vertex="1" parent="1">
          <mxGeometry x="490" y="390" width="120" height="60" as="geometry" />
        </mxCell>
        <mxCell id="0GZyKoDngFQgcf6ex4dP-14" style="edgeStyle=orthogonalEdgeStyle;rounded=0;orthogonalLoop=1;jettySize=auto;html=1;entryX=1;entryY=0.5;entryDx=0;entryDy=0;fontSize=16;startArrow=classic;startFill=1;" edge="1" parent="1" source="0GZyKoDngFQgcf6ex4dP-11" target="0GZyKoDngFQgcf6ex4dP-1">
          <mxGeometry relative="1" as="geometry" />
        </mxCell>
        <mxCell id="0GZyKoDngFQgcf6ex4dP-15" style="edgeStyle=orthogonalEdgeStyle;rounded=0;orthogonalLoop=1;jettySize=auto;html=1;fontSize=16;startArrow=classic;startFill=1;" edge="1" parent="1" source="0GZyKoDngFQgcf6ex4dP-11" target="0GZyKoDngFQgcf6ex4dP-2">
          <mxGeometry relative="1" as="geometry" />
        </mxCell>
        <mxCell id="0GZyKoDngFQgcf6ex4dP-16" style="edgeStyle=orthogonalEdgeStyle;rounded=0;orthogonalLoop=1;jettySize=auto;html=1;entryX=1;entryY=0.5;entryDx=0;entryDy=0;fontSize=16;startArrow=classic;startFill=1;" edge="1" parent="1" source="0GZyKoDngFQgcf6ex4dP-11" target="0GZyKoDngFQgcf6ex4dP-3">
          <mxGeometry relative="1" as="geometry" />
        </mxCell>
        <mxCell id="0GZyKoDngFQgcf6ex4dP-17" style="edgeStyle=orthogonalEdgeStyle;rounded=0;orthogonalLoop=1;jettySize=auto;html=1;entryX=1;entryY=0.25;entryDx=0;entryDy=0;fontSize=16;startArrow=classic;startFill=1;" edge="1" parent="1" source="0GZyKoDngFQgcf6ex4dP-11" target="0GZyKoDngFQgcf6ex4dP-4">
          <mxGeometry relative="1" as="geometry" />
        </mxCell>
        <mxCell id="0GZyKoDngFQgcf6ex4dP-18" value="many-many" style="edgeStyle=orthogonalEdgeStyle;rounded=0;orthogonalLoop=1;jettySize=auto;html=1;fontSize=16;startArrow=classic;startFill=1;" edge="1" parent="1" source="0GZyKoDngFQgcf6ex4dP-11" target="0GZyKoDngFQgcf6ex4dP-6">
          <mxGeometry relative="1" as="geometry" />
        </mxCell>
        <mxCell id="0GZyKoDngFQgcf6ex4dP-11" value="&lt;font style=&quot;font-size: 16px;&quot;&gt;Event&lt;/font&gt;" style="rounded=0;whiteSpace=wrap;html=1;" vertex="1" parent="1">
          <mxGeometry x="490" y="280" width="120" height="60" as="geometry" />
        </mxCell>
      </root>
    </mxGraphModel>
  </diagram>
</mxfile>
